<?xml version="1.0" standalone="no"?>
<!DOCTYPE svg PUBLIC "-//W3C//DTD SVG 20010904//EN"
 "http://www.w3.org/TR/2001/REC-SVG-20010904/DTD/svg10.dtd">
<svg version="1.0" xmlns="http://www.w3.org/2000/svg"
 width="1000.000000pt" height="1000.000000pt" viewBox="0 0 1000.000000 1000.000000"
 preserveAspectRatio="xMidYMid meet">

<g transform="translate(0.000000,1000.000000) scale(0.100000,-0.100000)"
fill="#000000" stroke="none">
<path d="M0 5000 l0 -5000 5000 0 5000 0 0 5000 0 5000 -5000 0 -5000 0 0
-5000z m4011 2620 c379 -701 689 -1280 689 -1286 0 -19 -180 -336 -393 -694
-60 -102 -135 -234 -165 -295 -30 -60 -63 -120 -73 -133 l-18 -23 -39 68 c-22
37 -54 95 -72 128 -25 48 -1816 3217 -1922 3402 -44 77 -41 83 50 84 42 1 293
7 557 14 264 7 529 12 589 11 l109 -1 688 -1275z m3659 1253 c0 -10 -15 -45
-33 -78 -42 -76 -4653 -7821 -4678 -7856 l-18 -26 -518 -6 c-331 -4 -521 -3
-527 3 -6 6 5 39 34 92 36 69 4661 7600 4796 7810 l43 68 273 3 c150 1 353 3
451 5 163 2 177 1 177 -15z"/>
</g>
</svg>
